ffprobe version n2.6.1 Copyright (c) 2007-2015 the FFmpeg developers
  built with gcc 4.8 (Ubuntu 4.8.2-19ubuntu1)
  configuration: --prefix=/opt/ffmpeg --extra-cflags=-I/opt/ffmpeg/include --extra-ldflags=-L/opt/ffmpeg/lib --extra-libs=-ldl --enable-gpl --enable-libass --enable-libfdk-aac --enable-libfreetype --enable-libmp3lame --enable-libtheora --enable-libvorbis --enable-libvpx --enable-libx264 --enable-libx265 --enable-nonfree
  libavutil      54. 20.100 / 54. 20.100
  libavcodec     56. 26.100 / 56. 26.100
  libavformat    56. 25.101 / 56. 25.101
  libavdevice    56.  4.100 / 56.  4.100
  libavfilter     5. 11.102 /  5. 11.102
  libswscale      3.  1.101 /  3.  1.101
  libswresample   1.  1.100 /  1.  1.100
  libpostproc    53.  3.100 / 53.  3.100
Input #0, matroska,webm, from '/media/flaviopontes/Gigante/Filmes/Anime/Steamboy_(2004)_[1080p,BluRay,flac,x264]_-_THORA/Steamboy_(2004)_[1080p,BluRay,flac,x264]_-_THORA.mkv':
  Metadata:
    title           : Steamboy_(2004)_[1080p,BluRay,flac,x264]_-_THORA
    encoder         : libebml v1.2.1 + libmatroska v1.1.1
    creation_time   : 2011-11-25 20:22:03
  Duration: 02:06:12.99, start: 0.000000, bitrate: 6241 kb/s
    Stream #0:0(jpn): Video: h264 (High 10), yuv420p10le, 1920x1038 [SAR 1:1 DAR 320:173], 23.98 fps, 23.98 tbr, 1k tbn, 47.95 tbc (default)
    Stream #0:1(jpn): Audio: flac, 48000 Hz, 5.1(side), s16 (default)
    Stream #0:2(eng): Subtitle: ass (default)
    Stream #0:3(rum): Subtitle: ass
    Stream #0:4(fre): Subtitle: ass
    Stream #0:5(dut): Subtitle: ass
    Stream #0:6(spa): Subtitle: ass
    Stream #0:7(swe): Subtitle: ass
    Stream #0:8(nor): Subtitle: ass
    Stream #0:9(fin): Subtitle: ass
    Stream #0:10(dan): Subtitle: ass
    Stream #0:11(por): Subtitle: ass
    Stream #0:12(slv): Subtitle: ass
    Stream #0:13(cze): Subtitle: ass
    Stream #0:14(hun): Subtitle: ass
    Stream #0:15(tur): Subtitle: ass
    Stream #0:16: Attachment: ttf
    Metadata:
      filename        : ChaparralPro-Bold.otf
      mimetype        : application/x-truetype-font
    Stream #0:17: Attachment: ttf
    Metadata:
      filename        : ChaparralPro-Regular.otf
      mimetype        : application/x-truetype-font
    Stream #0:18: Attachment: ttf
    Metadata:
      filename        : ChaparralPro-Italic.otf
      mimetype        : application/x-truetype-font
    Stream #0:19: Attachment: ttf
    Metadata:
      filename        : ChaparralPro-BoldIt.otf
      mimetype        : application/x-truetype-font
    Stream #0:20: Attachment: ttf
    Metadata:
      filename        : CronosPro-Bold.ttf
      mimetype        : application/x-truetype-font
    Stream #0:21: Attachment: ttf
    Metadata:
      filename        : CronosPro-Semibold.ttf
      mimetype        : application/x-truetype-font
    Stream #0:22: Attachment: ttf
    Metadata:
      filename        : CronosPro-SemiboldIt.ttf
      mimetype        : application/x-truetype-font
Unsupported codec with id 98304 for input stream 16
Unsupported codec with id 98304 for input stream 17
Unsupported codec with id 98304 for input stream 18
Unsupported codec with id 98304 for input stream 19
Unsupported codec with id 98304 for input stream 20
Unsupported codec with id 98304 for input stream 21
Unsupported codec with id 98304 for input stream 22
